<svg width="24" height="24" viewBox="0 0 24 24" fill="none" xmlns="http://www.w3.org/2000/svg">
<path fill-rule="evenodd" clip-rule="evenodd" d="M17.2381 5.54887V4.55639C17.2381 4.02995 17.0173 3.52506 16.6244 3.15281C16.2315 2.78056 15.6985 2.57143 15.1428 2.57143H8.85713C8.30143 2.57143 7.7685 2.78056 7.37557 3.15281C6.98264 3.52506 6.76189 4.02995 6.76189 4.55639V5.54887H3.61903C3.34118 5.54887 3.07472 5.65344 2.87825 5.83956C2.68178 6.02569 2.57141 6.27813 2.57141 6.54135C2.57141 6.80458 2.68178 7.05702 2.87825 7.24314C3.07472 7.42927 3.34118 7.53383 3.61903 7.53383H4.66665V18.4511C4.66665 19.2408 4.99777 19.9981 5.58717 20.5565C6.17657 21.1149 6.97597 21.4286 7.80951 21.4286H16.1905C17.024 21.4286 17.8234 21.1149 18.4128 20.5565C19.0022 19.9981 19.3333 19.2408 19.3333 18.4511V7.53383H20.3809C20.6588 7.53383 20.9252 7.42927 21.1217 7.24314C21.3182 7.05702 21.4286 6.80458 21.4286 6.54135C21.4286 6.27813 21.3182 6.02569 21.1217 5.83956C20.9252 5.65344 20.6588 5.54887 20.3809 5.54887H17.2381ZM15.1428 4.55639H8.85713V5.54887H15.1428V4.55639ZM17.2381 7.53383H6.76189V18.4511C6.76189 18.7143 6.87226 18.9668 7.06873 19.1529C7.26519 19.339 7.53166 19.4436 7.80951 19.4436H16.1905C16.4683 19.4436 16.7348 19.339 16.9312 19.1529C17.1277 18.9668 17.2381 18.7143 17.2381 18.4511V7.53383Z" />
<path d="M8.85706 9.5188H10.9523V17.4586H8.85706V9.5188ZM13.0475 9.5188H15.1428V17.4586H13.0475V9.5188Z" />
</svg>
