<svg width="24" height="24" viewBox="0 0 24 24" fill="none" xmlns="http://www.w3.org/2000/svg">
<path d="M20.4286 14.0952C20.9808 14.0952 21.4286 14.543 21.4286 15.0952V19.3333C21.4286 19.889 21.2078 20.422 20.8149 20.8149C20.4219 21.2078 19.889 21.4286 19.3333 21.4286H4.66665C4.11096 21.4286 3.57803 21.2078 3.18509 20.8149C2.79216 20.422 2.57141 19.889 2.57141 19.3333V4.66667C2.57141 4.11097 2.79216 3.57804 3.18509 3.18511C3.57803 2.79218 4.11096 2.57143 4.66665 2.57143H8.90475C9.45703 2.57143 9.90475 3.01914 9.90475 3.57143V3.66667C9.90475 4.21895 9.45703 4.66667 8.90475 4.66667H4.66665V19.3333H19.3333V15.0952C19.3333 14.543 19.781 14.0952 20.3333 14.0952H20.4286Z" fill="#0085FF"/>
<path d="M21 8C21 7.44772 20.5523 7 20 7H17V4C17 3.44772 16.5523 3 16 3C15.4477 3 15 3.44772 15 4V7H12C11.4477 7 11 7.44772 11 8C11 8.55228 11.4477 9 12 9H15V12C15 12.5523 15.4477 13 16 13C16.5523 13 17 12.5523 17 12V9H20C20.5523 9 21 8.55228 21 8Z" fill="#0085FF"/>
</svg>
