<svg width="15" height="8" viewBox="0 0 15 8" fill="none" xmlns="http://www.w3.org/2000/svg">
<path d="M15 1.16996C15.0005 1.31935 14.9676 1.46696 14.9035 1.60194C14.8395 1.73692 14.7461 1.85584 14.63 1.94996L8.63003 6.77996C8.4511 6.92704 8.22666 7.00745 7.99503 7.00745C7.76341 7.00745 7.53896 6.92704 7.36003 6.77996L1.36003 1.77996C1.15581 1.61022 1.02739 1.36631 1.00301 1.10188C0.978631 0.837455 1.06029 0.574174 1.23003 0.369958C1.39977 0.165741 1.64368 0.0373169 1.90811 0.0129371C2.17253 -0.0114426 2.43581 0.0702189 2.64003 0.239957L8.00003 4.70996L13.36 0.389958C13.5068 0.267674 13.6856 0.189997 13.8751 0.166118C14.0647 0.142238 14.2571 0.173155 14.4296 0.255211C14.6021 0.337267 14.7475 0.467027 14.8486 0.629137C14.9497 0.791247 15.0023 0.978923 15 1.16996Z" fill="#313131"/>
</svg>
