<svg width="24" height="24" viewBox="0 0 24 24" fill="none" xmlns="http://www.w3.org/2000/svg">
<path fill-rule="evenodd" clip-rule="evenodd" d="M15.2173 15.2173C15.5071 14.9276 15.9768 14.9276 16.2666 15.2173L20.7827 19.7334C21.0724 20.0232 21.0724 20.4929 20.7827 20.7827C20.4929 21.0724 20.0232 21.0724 19.7334 20.7827L15.2173 16.2666C14.9276 15.9768 14.9276 15.5071 15.2173 15.2173Z" fill="#BDBDBD"/>
<path fill-rule="evenodd" clip-rule="evenodd" d="M10.5 4.41008C7.13663 4.41008 4.41008 7.13663 4.41008 10.5C4.41008 13.8634 7.13663 16.5899 10.5 16.5899C13.8634 16.5899 16.5899 13.8634 16.5899 10.5C16.5899 7.13663 13.8634 4.41008 10.5 4.41008ZM3 10.5C3 6.35786 6.35786 3 10.5 3C14.6421 3 18 6.35786 18 10.5C18 14.6421 14.6421 18 10.5 18C6.35786 18 3 14.6421 3 10.5Z" fill="#BDBDBD"/>
</svg>
