<svg width="24" height="24" viewBox="0 0 24 24" fill="none" xmlns="http://www.w3.org/2000/svg">
<path d="M3.6001 6.00001C3.6001 5.36349 3.85295 4.75304 4.30304 4.30295C4.75313 3.85286 5.36358 3.60001 6.0001 3.60001H16.0549C16.6914 3.60014 17.3017 3.85309 17.7517 4.30321L19.6969 6.24841C20.147 6.69839 20.4 7.30874 20.4001 7.94521V18C20.4001 18.6365 20.1472 19.247 19.6972 19.6971C19.2471 20.1471 18.6366 20.4 18.0001 20.4H6.0001C5.36358 20.4 4.75313 20.1471 4.30304 19.6971C3.85295 19.247 3.6001 18.6365 3.6001 18V6.00001ZM6.0001 4.80001C5.68184 4.80001 5.37661 4.92643 5.15157 5.15148C4.92653 5.37652 4.8001 5.68175 4.8001 6.00001V18C4.8001 18.3183 4.92653 18.6235 5.15157 18.8485C5.37661 19.0736 5.68184 19.2 6.0001 19.2V13.8C6.0001 13.3226 6.18974 12.8648 6.52731 12.5272C6.86487 12.1896 7.32271 12 7.8001 12H16.2001C16.6775 12 17.1353 12.1896 17.4729 12.5272C17.8105 12.8648 18.0001 13.3226 18.0001 13.8V19.2C18.3184 19.2 18.6236 19.0736 18.8486 18.8485C19.0737 18.6235 19.2001 18.3183 19.2001 18V7.94521C19.2 7.62697 19.0736 7.3218 18.8485 7.09681L16.9033 5.15161C16.6783 4.92655 16.3731 4.80007 16.0549 4.80001H15.6001V7.80001C15.6001 8.2774 15.4105 8.73523 15.0729 9.0728C14.7353 9.41036 14.2775 9.60001 13.8001 9.60001H9.0001C8.52271 9.60001 8.06487 9.41036 7.7273 9.0728C7.38974 8.73523 7.2001 8.2774 7.2001 7.80001V4.80001H6.0001ZM8.4001 4.80001V7.80001C8.4001 7.95914 8.46331 8.11175 8.57583 8.22427C8.68836 8.33679 8.84097 8.40001 9.0001 8.40001H13.8001C13.9592 8.40001 14.1118 8.33679 14.2244 8.22427C14.3369 8.11175 14.4001 7.95914 14.4001 7.80001V4.80001H8.4001ZM16.8001 19.2V13.8C16.8001 13.6409 16.7369 13.4883 16.6244 13.3757C16.5118 13.2632 16.3592 13.2 16.2001 13.2H7.8001C7.64097 13.2 7.48836 13.2632 7.37583 13.3757C7.26331 13.4883 7.2001 13.6409 7.2001 13.8V19.2H16.8001Z" fill="white"/>
</svg>
