<svg width="32" height="32" viewBox="0 0 32 32" fill="none" xmlns="http://www.w3.org/2000/svg">
<path d="M16.8571 4.85714C16.8571 4.62981 16.7668 4.4118 16.6061 4.25105C16.4453 4.09031 16.2273 4 16 4C15.7727 4 15.5547 4.09031 15.3939 4.25105C15.2332 4.4118 15.1429 4.62981 15.1429 4.85714V6.57143C15.1429 6.79876 15.2332 7.01677 15.3939 7.17752C15.5547 7.33827 15.7727 7.42857 16 7.42857C16.2273 7.42857 16.4453 7.33827 16.6061 7.17752C16.7668 7.01677 16.8571 6.79876 16.8571 6.57143V4.85714ZM22 16C22 17.5913 21.3679 19.1174 20.2426 20.2426C19.1174 21.3679 17.5913 22 16 22C14.4087 22 12.8826 21.3679 11.7574 20.2426C10.6321 19.1174 10 17.5913 10 16C10 14.4087 10.6321 12.8826 11.7574 11.7574C12.8826 10.6321 14.4087 10 16 10C17.5913 10 19.1174 10.6321 20.2426 11.7574C21.3679 12.8826 22 14.4087 22 16ZM20.2857 16C20.2857 14.8634 19.8342 13.7733 19.0305 12.9695C18.2267 12.1658 17.1366 11.7143 16 11.7143V20.2857C17.1366 20.2857 18.2267 19.8342 19.0305 19.0305C19.8342 18.2267 20.2857 17.1366 20.2857 16ZM28 16C28 16.2273 27.9097 16.4453 27.7489 16.6061C27.5882 16.7668 27.3702 16.8571 27.1429 16.8571H25.4286C25.2012 16.8571 24.9832 16.7668 24.8225 16.6061C24.6617 16.4453 24.5714 16.2273 24.5714 16C24.5714 15.7727 24.6617 15.5547 24.8225 15.3939C24.9832 15.2332 25.2012 15.1429 25.4286 15.1429H27.1429C27.3702 15.1429 27.5882 15.2332 27.7489 15.3939C27.9097 15.5547 28 15.7727 28 16ZM16.8571 25.4286C16.8571 25.2012 16.7668 24.9832 16.6061 24.8225C16.4453 24.6617 16.2273 24.5714 16 24.5714C15.7727 24.5714 15.5547 24.6617 15.3939 24.8225C15.2332 24.9832 15.1429 25.2012 15.1429 25.4286V27.1429C15.1429 27.3702 15.2332 27.5882 15.3939 27.7489C15.5547 27.9097 15.7727 28 16 28C16.2273 28 16.4453 27.9097 16.6061 27.7489C16.7668 27.5882 16.8571 27.3702 16.8571 27.1429V25.4286ZM7.42857 16C7.42857 16.2273 7.33827 16.4453 7.17752 16.6061C7.01677 16.7668 6.79876 16.8571 6.57143 16.8571H4.85714C4.62981 16.8571 4.4118 16.7668 4.25105 16.6061C4.09031 16.4453 4 16.2273 4 16C4 15.7727 4.09031 15.5547 4.25105 15.3939C4.4118 15.2332 4.62981 15.1429 4.85714 15.1429H6.57143C6.79876 15.1429 7.01677 15.2332 7.17752 15.3939C7.33827 15.5547 7.42857 15.7727 7.42857 16ZM8.03457 6.82343C7.9555 6.74156 7.86092 6.67626 7.75635 6.63134C7.65177 6.58642 7.5393 6.56277 7.42549 6.56179C7.31168 6.5608 7.19881 6.58248 7.09347 6.62558C6.98813 6.66868 6.89243 6.73233 6.81195 6.8128C6.73147 6.89328 6.66782 6.98899 6.62472 7.09433C6.58163 7.19966 6.55994 7.31253 6.56093 7.42634C6.56192 7.54015 6.58556 7.65263 6.63048 7.7572C6.67541 7.86178 6.74071 7.95636 6.82257 8.03543L8.53686 9.74971C8.69852 9.90585 8.91503 9.99225 9.13977 9.99029C9.36451 9.98834 9.57949 9.89819 9.73842 9.73927C9.89734 9.58035 9.98748 9.36537 9.98943 9.14063C9.99139 8.91589 9.90499 8.69937 9.74886 8.53771L8.03457 6.82343ZM6.82257 25.1783C6.98331 25.339 7.20129 25.4292 7.42857 25.4292C7.65585 25.4292 7.87383 25.339 8.03457 25.1783L9.74886 23.464C9.83072 23.3849 9.89602 23.2903 9.94094 23.1858C9.98587 23.0812 10.0095 22.9687 10.0105 22.8549C10.0115 22.7411 9.9898 22.6282 9.9467 22.5229C9.90361 22.4176 9.83996 22.3219 9.75948 22.2414C9.679 22.1609 9.5833 22.0973 9.47796 22.0542C9.37262 22.0111 9.25975 21.9894 9.14594 21.9904C9.03213 21.9913 8.91966 22.015 8.81508 22.0599C8.71051 22.1048 8.61593 22.1701 8.53686 22.252L6.82257 23.9663C6.66188 24.127 6.57161 24.345 6.57161 24.5723C6.57161 24.7996 6.66188 25.0175 6.82257 25.1783ZM23.9654 6.82343C24.1271 6.66729 24.3436 6.5809 24.5683 6.58285C24.7931 6.5848 25.0081 6.67495 25.167 6.83387C25.3259 6.99279 25.4161 7.20777 25.418 7.43251C25.42 7.65725 25.3336 7.87377 25.1774 8.03543L23.4631 9.74971C23.3015 9.90585 23.085 9.99225 22.8602 9.99029C22.6355 9.98834 22.4205 9.89819 22.2616 9.73927C22.1027 9.58035 22.0125 9.36537 22.0106 9.14063C22.0086 8.91589 22.095 8.69937 22.2511 8.53771L23.9654 6.82343ZM23.9654 25.1783L22.2511 23.464C22.095 23.3023 22.0086 23.0858 22.0106 22.8611C22.0125 22.6363 22.1027 22.4214 22.2616 22.2624C22.4205 22.1035 22.6355 22.0134 22.8602 22.0114C23.085 22.0095 23.3015 22.0959 23.4631 22.252L25.1774 23.9663C25.3336 24.1279 25.42 24.3445 25.418 24.5692C25.4161 24.7939 25.3259 25.0089 25.167 25.1678C25.0081 25.3268 24.7931 25.4169 24.5683 25.4189C24.3436 25.4208 24.1271 25.3344 23.9654 25.1783Z" fill="#313131"/>
</svg>
