<svg width="32" height="32" viewBox="0 0 32 32" fill="none" xmlns="http://www.w3.org/2000/svg">
<path d="M26.6667 18.6667C26.544 18.752 24 21.444 24 23.3333C24 25.3253 25.2653 26.5973 26.6667 26.6667C27.8747 26.7253 29.3333 25.4787 29.3333 23.3333C29.3333 21.3333 26.7893 18.752 26.6667 18.6667ZM12.7813 26.6667C13.2853 27.1707 13.9547 27.448 14.6667 27.448C15.3787 27.448 16.048 27.1707 16.552 26.6667L25.1782 18.0404C25.5688 17.6499 25.5688 17.0168 25.1782 16.6262L24.9427 16.3907L14.6667 6.11468L12.3164 3.76445C11.9259 3.37393 11.2928 3.37393 10.9022 3.76445L10.4311 4.23557C10.0406 4.62609 10.0406 5.25926 10.4311 5.64978L12.7813 8.00001L5.33334 15.448C4.82934 15.952 4.552 16.6213 4.552 17.3333C4.552 18.0453 4.82934 18.7147 5.33334 19.2187L12.7813 26.6667ZM14.6667 9.88534L22.1147 17.3333H7.21867L14.6667 9.88534Z" fill="#313131"/>
</svg>
