<svg width="32" height="32" viewBox="0 0 32 32" fill="none" xmlns="http://www.w3.org/2000/svg">
<path fill-rule="evenodd" clip-rule="evenodd" d="M15.2343 6.32073C15.3557 5.04117 16.4146 4 17.7575 4C19.1281 4 20.1248 5.06928 20.2386 6.32571C20.505 6.24925 20.7581 6.21965 20.9661 6.21965C22.4235 6.21965 23.4581 7.42868 23.4581 8.78613V9.65046C23.7198 9.57731 23.9686 9.54913 24.1747 9.54913C25.6321 9.54913 26.6667 10.7582 26.6667 12.1156V20.4393C26.6667 22.9061 25.7241 24.8342 24.1437 26.1288C22.5863 27.4046 20.4917 28 18.2709 28C16.1196 28 14.4916 27.7123 12.9865 26.5646C11.5504 25.4696 10.3139 23.6509 8.71675 20.8886C8.71661 20.8884 8.71689 20.8889 8.71675 20.8886L7.03919 18.0022C6.18297 16.5572 6.86178 14.6691 8.47409 14.1264C9.00337 13.9473 9.57434 13.9411 10.1074 14.1091C10.6331 14.2747 11.091 14.5997 11.4249 15.0336L12.0141 15.7431V8.80832C12.0141 7.44939 13.0694 6.21965 14.5275 6.21965C14.7309 6.21965 14.9762 6.24794 15.2343 6.32073ZM15.2227 8.78613C15.2227 8.57466 15.1813 8.4424 15.1412 8.36124C15.1012 8.28034 15.0481 8.22109 14.9851 8.17387C14.8421 8.06675 14.6459 8.02312 14.5275 8.02312C14.1888 8.02312 13.8323 8.32716 13.8323 8.80832V18.2197C13.8323 18.2255 13.8322 18.2313 13.8321 18.2371C13.8376 18.5035 13.7246 18.7698 13.5012 18.9523C13.1136 19.2689 12.5407 19.214 12.2215 18.8296L10.0097 16.166C10.0009 16.1555 9.99244 16.1448 9.9842 16.1339C9.87034 15.9833 9.7197 15.8792 9.55697 15.8279C9.39478 15.7768 9.22242 15.7786 9.06096 15.8334L9.0587 15.8341C8.56005 16.0017 8.32145 16.609 8.60758 17.0898L8.61234 17.0978L10.2935 19.9907C11.9048 22.7772 12.9838 24.2878 14.0946 25.1348C15.1367 25.9294 16.2873 26.1965 18.2709 26.1965C20.1849 26.1965 21.8337 25.6821 22.9859 24.7382C24.1152 23.8132 24.8485 22.4118 24.8485 20.4393V12.1156C24.8485 11.6352 24.512 11.3526 24.1747 11.3526C24.0457 11.3526 23.8433 11.3981 23.6975 11.5062C23.6331 11.5539 23.5797 11.6132 23.5397 11.6934C23.4996 11.7738 23.4581 11.9051 23.4581 12.1156V14.8902C23.4581 15.3882 23.0511 15.7919 22.549 15.7919C22.047 15.7919 21.6399 15.3882 21.6399 14.8902V8.78613C21.6399 8.3057 21.3034 8.02312 20.9661 8.02312C20.8464 8.02312 20.6422 8.06749 20.4923 8.178C20.4262 8.22677 20.3718 8.28697 20.3314 8.36715C20.2911 8.44721 20.2495 8.57739 20.2495 8.78613V14.8902C20.2495 15.3882 19.8425 15.7919 19.3404 15.7919C18.8383 15.7919 18.4313 15.3882 18.4313 14.8902V6.56647C18.4313 6.08605 18.0948 5.80347 17.7575 5.80347C17.3886 5.80347 17.0409 6.11787 17.0409 6.56647V14.8902C17.0409 15.3882 16.6339 15.7919 16.1318 15.7919C15.6297 15.7919 15.2227 15.3882 15.2227 14.8902V8.78613Z" fill="#313131"/>
</svg>
