<svg width="32" height="32" viewBox="0 0 32 32" fill="none" xmlns="http://www.w3.org/2000/svg">
<path fill-rule="evenodd" clip-rule="evenodd" d="M22.372 6.54446L7.30337 21.6139L6.61511 20.9257L7.30331 21.614C7.09513 21.8221 6.95322 22.0872 6.89548 22.3759C6.89547 22.3759 6.89547 22.3759 6.89547 22.3759L6.2133 25.7867L9.62294 25.1046L9.62297 25.1046C9.91165 25.0469 10.1768 24.905 10.385 24.6968L10.385 24.6967L25.456 9.62736C25.8457 9.21616 26.0603 8.66931 26.0539 8.10254C26.0475 7.53248 25.8182 6.98757 25.415 6.58451C25.0118 6.18144 24.4668 5.95226 23.8968 5.94603C23.3299 5.93983 22.7831 6.15455 22.372 6.54446ZM5.92738 20.238L21.0042 5.16028L21.0195 5.14529C21.7989 4.39948 22.8393 3.98846 23.918 4.00025C24.9967 4.01203 26.0279 4.44569 26.7908 5.20836C27.5537 5.97103 27.9877 7.00208 27.9997 8.08074C28.0118 9.15939 27.6011 10.1999 26.8555 10.9795L26.8403 10.995L11.761 26.0727C11.2812 26.5525 10.6701 26.8796 10.0047 27.0127C10.0047 27.0127 10.0046 27.0127 10.0046 27.0127L5.16385 27.9811C4.84485 28.0449 4.51505 27.9451 4.28501 27.715C4.05496 27.485 3.95511 27.1552 4.01891 26.8362L4.98732 21.9943L4.98732 21.9943C5.12042 21.3289 5.44751 20.7178 5.92738 20.238Z" fill="#313131"/>
<path fill-rule="evenodd" clip-rule="evenodd" d="M23.0977 12.8421L19.5999 9.16014L20.902 7.78946L24.3999 11.4714L23.0977 12.8421Z" fill="#313131"/>
</svg>
