<svg width="50" height="50" viewBox="0 0 50 50" fill="none" xmlns="http://www.w3.org/2000/svg">
<rect width="50" height="50" rx="9" fill="#0085FF"/>
<path d="M9.82959 8.80011H23.3996C26.8036 8.80011 29.8243 9.47478 32.4616 10.8241C35.0989 12.1734 37.1383 14.0748 38.5796 16.5281C40.0516 18.9508 40.7876 21.7414 40.7876 24.9001C40.7876 28.0588 40.0516 30.8648 38.5796 33.3181C37.1383 35.7408 35.0989 37.6268 32.4616 38.9761C29.8243 40.3254 26.8036 41.0001 23.3996 41.0001H9.82959V8.80011ZM23.1236 36.9981C25.7303 36.9981 28.0149 36.4921 29.9776 35.4801C31.9709 34.4681 33.5043 33.0574 34.5776 31.2481C35.6509 29.4081 36.1876 27.2921 36.1876 24.9001C36.1876 22.5081 35.6509 20.4074 34.5776 18.5981C33.5043 16.7581 31.9709 15.3321 29.9776 14.3201C28.0149 13.3081 25.7303 12.8021 23.1236 12.8021H14.4296V36.9981H23.1236Z" fill="white"/>
<g clip-path="url(#clip0_73_3969)">
<path d="M26.0165 21.4974L30.5025 25.9834L41.9708 14.5193L37.4806 10.0291L26.0165 21.4974ZM23.0259 28.4756C22.9271 28.8752 23.1247 29.0728 23.5243 28.974L29.5056 26.9802L25.0196 22.4943L23.0259 28.4756ZM43.9646 8.03533C41.9751 6.04158 39.9771 7.53689 39.9771 7.53689C39.6505 7.78611 38.4818 9.03221 38.4818 9.03221L42.9677 13.5181C42.9677 13.5181 44.2095 12.3494 44.463 12.0228C44.463 12.0228 45.9583 10.0334 43.9646 8.03533Z" fill="white"/>
</g>
<defs>
<clipPath id="clip0_73_3969">
<rect width="22" height="22" fill="white" transform="translate(23 6.99986)"/>
</clipPath>
</defs>
</svg>
